<svg xmlns="http://www.w3.org/2000/svg" width="226" height="35"><g fill="none" fill-rule="evenodd"><path fill="#FFF" d="M51.726 24.971c3.02 0 4.53-1.03 4.53-3.406 0-2.02-1.51-3.168-4.013-3.168h-3.299v6.574h2.782zm-.715-11.009c2.384 0 3.616-1.346 3.616-3.049 0-1.782-1.192-3.168-3.735-3.168h-1.948v6.217h2.067zM43.5 3.31h8.226c5.683 0 8.226 3.286 8.226 6.613 0 2.138-1.073 4.237-3.1 5.267v.079c3.14.832 4.889 3.366 4.889 6.296 0 3.96-3.1 7.841-9.3 7.841H43.5V3.31z"/><path d="M43.5 29.802h154.074V0H43.5z"/><path fill="#FFF" d="M64.562 29.406h5.365v-18.73h-5.365v18.73zm-.556-24.513c0-1.702 1.39-3.088 3.259-3.088 1.828 0 3.218 1.307 3.218 3.088 0 1.743-1.39 3.169-3.218 3.169-1.868 0-3.26-1.386-3.26-3.169zm11.048 19.642v-9.701h-3.458v-4.159h3.458V6.28l5.404-1.545v5.94h5.683l-1.232 4.159h-4.45v8.355c0 1.743.556 2.337 1.787 2.337a5.236 5.236 0 002.782-.832l1.55 3.643c-1.39.95-3.854 1.465-5.722 1.465-3.577 0-5.802-1.98-5.802-5.267m12.995-13.86h4.53l.596 1.98c1.59-1.465 3.1-2.455 5.126-2.455.915 0 2.027.277 2.862.871l-1.868 4.436a4.59 4.59 0 00-2.384-.713c-1.153 0-2.067.396-3.497 1.544v13.068h-5.365v-18.73zm14.148 18.731h5.365v-18.73h-5.365v18.73zm-.557-24.513c0-1.702 1.391-3.088 3.259-3.088 1.828 0 3.219 1.307 3.219 3.088 0 1.743-1.391 3.169-3.22 3.169-1.867 0-3.258-1.386-3.258-3.169zm14.386 15.088l-6.875-9.306h5.564l4.212 5.703 4.213-5.703h5.563l-6.955 9.306 7.034 9.425h-5.563l-4.332-5.861-4.371 5.861h-5.563z"/><path fill="#0065A3" d="M145.99 8.64c0-2.502-2.07-3.38-4.272-3.38-2.95 0-5.373.966-7.62 1.976l-1.541-4.609c2.51-1.141 5.99-2.414 10.13-2.414 6.474 0 9.6 3.248 9.6 7.812 0 7.988-11.01 10.226-12.86 16.327h13.257v5.091h-21.096c1.19-14.263 14.402-15.097 14.402-20.803"/><path fill="#0065A3" d="M161.976 17.725h2.643v-3.116c0-2.238.176-4.828.264-5.398l-6.562 8.646a71.941 71.941 0 013.655-.132zm-10.349 1.01L166.16.3h4.317v17.424h4.316v4.828h-4.316v6.89h-5.858v-6.89h-12.992v-3.819zm36.222-1.45a7.563 7.563 0 110-15.124 7.563 7.563 0 110 15.124m0-17.285c-5.37 0-9.724 4.353-9.724 9.723 0 5.37 4.354 9.723 9.724 9.723 5.371 0 9.725-4.353 9.725-9.723 0-5.37-4.354-9.723-9.725-9.723"/><path fill="#0065A3" d="M188.93 8.642h3.242v2.161h-5.403V5.402h2.16v3.24z"/></g></svg>